<svg width="179" height="25" viewBox="0 0 179 25" fill="none" xmlns="http://www.w3.org/2000/svg">
<g filter="url(#filter0_i_1_2)">
<path d="M0.792 25V1.992H19.992C20.696 1.992 21.336 2.17333 21.912 2.536C22.5093 2.87733 22.9787 3.336 23.32 3.912C23.6613 4.488 23.832 5.128 23.832 5.832V12.584C23.832 13.288 23.6613 13.928 23.32 14.504C22.9787 15.08 22.5093 15.5493 21.912 15.912C21.336 16.2533 20.696 16.424 19.992 16.424H3.384V25H0.792ZM4.632 13.8H19.992C20.3333 13.8 20.6213 13.6827 20.856 13.448C21.112 13.2133 21.24 12.9253 21.24 12.584V5.832C21.24 5.49067 21.112 5.20267 20.856 4.968C20.6213 4.712 20.3333 4.584 19.992 4.584H4.632C4.29067 4.584 3.992 4.712 3.736 4.968C3.50133 5.20267 3.384 5.49067 3.384 5.832V12.584C3.384 12.9253 3.50133 13.2133 3.736 13.448C3.992 13.6827 4.29067 13.8 4.632 13.8Z" fill="#27A9A1"/>
<path d="M25.9765 25V10.312C25.9765 9.608 26.1472 8.968 26.4885 8.392C26.8512 7.79467 27.3205 7.32533 27.8965 6.984C28.4938 6.62133 29.1445 6.44 29.8485 6.44H40.2805V9.064H29.8485C29.5072 9.064 29.2085 9.192 28.9525 9.448C28.7178 9.68267 28.6005 9.97067 28.6005 10.312V25H25.9765ZM46.0353 25C45.3313 25 44.6806 24.8293 44.0833 24.488C43.5073 24.1253 43.0379 23.656 42.6753 23.08C42.3339 22.4827 42.1633 21.832 42.1633 21.128V10.312C42.1633 9.608 42.3339 8.968 42.6753 8.392C43.0379 7.79467 43.5073 7.32533 44.0833 6.984C44.6806 6.62133 45.3313 6.44 46.0353 6.44H57.1713C57.8966 6.44 58.5473 6.62133 59.1233 6.984C59.7206 7.32533 60.1899 7.79467 60.5312 8.392C60.8939 8.968 61.0753 9.608 61.0753 10.312V21.128C61.0753 21.832 60.8939 22.4827 60.5312 23.08C60.1899 23.656 59.7206 24.1253 59.1233 24.488C58.5473 24.8293 57.8966 25 57.1713 25H46.0353ZM46.0353 22.376H57.1713C57.5126 22.376 57.8006 22.2587 58.0353 22.024C58.2913 21.768 58.4193 21.4693 58.4193 21.128V10.312C58.4193 9.97067 58.2913 9.68267 58.0353 9.448C57.8006 9.192 57.5126 9.064 57.1713 9.064H46.0353C45.6939 9.064 45.3953 9.192 45.1393 9.448C44.9046 9.68267 44.7873 9.97067 44.7873 10.312V21.128C44.7873 21.4693 44.9046 21.768 45.1393 22.024C45.3953 22.2587 45.6939 22.376 46.0353 22.376ZM64.3835 25V4.232C64.3835 3.50667 64.5542 2.856 64.8955 2.28C65.2368 1.68267 65.6955 1.21333 66.2715 0.872C66.8688 0.530666 67.5302 0.359999 68.2555 0.359999H75.0395V2.984H68.2555C67.9142 2.984 67.6155 3.112 67.3595 3.368C67.1248 3.60267 67.0075 3.89067 67.0075 4.232V6.44H75.0395V9.064H67.0075V25H64.3835ZM77.3828 25V6.44H80.0068V25H77.3828ZM77.3828 2.984V0.359999H80.0068V2.984H77.3828ZM87.911 25C87.207 25 86.5563 24.8293 85.959 24.488C85.383 24.1253 84.9137 23.656 84.551 23.08C84.2097 22.4827 84.039 21.832 84.039 21.128V0.359999H86.663V21.128C86.663 21.4693 86.7803 21.768 87.015 22.024C87.271 22.2587 87.5697 22.376 87.911 22.376H91.047V25H87.911ZM97.0665 25C96.3625 25 95.7118 24.8293 95.1145 24.488C94.5385 24.1253 94.0692 23.656 93.7065 23.08C93.3652 22.4827 93.1945 21.832 93.1945 21.128V10.312C93.1945 9.608 93.3652 8.968 93.7065 8.392C94.0692 7.79467 94.5385 7.32533 95.1145 6.984C95.7118 6.62133 96.3625 6.44 97.0665 6.44H108.203C108.928 6.44 109.579 6.62133 110.155 6.984C110.752 7.32533 111.221 7.79467 111.562 8.392C111.925 8.968 112.107 9.608 112.107 10.312V17.032H95.8185V21.128C95.8185 21.4693 95.9358 21.768 96.1705 22.024C96.4265 22.2587 96.7252 22.376 97.0665 22.376H112.107V25H97.0665ZM95.8185 14.408H109.451V10.312C109.451 9.97067 109.323 9.68267 109.067 9.448C108.832 9.192 108.544 9.064 108.203 9.064H97.0665C96.7252 9.064 96.4265 9.192 96.1705 9.448C95.9358 9.68267 95.8185 9.97067 95.8185 10.312V14.408ZM153.286 25C152.582 25 151.931 24.8293 151.334 24.488C150.758 24.1253 150.289 23.656 149.926 23.08C149.585 22.4827 149.414 21.832 149.414 21.128V14.408H165.67V10.312C165.67 9.97067 165.542 9.68267 165.286 9.448C165.051 9.192 164.763 9.064 164.422 9.064H149.414V6.44H164.422C165.147 6.44 165.798 6.62133 166.374 6.984C166.971 7.32533 167.441 7.79467 167.782 8.392C168.145 8.968 168.326 9.608 168.326 10.312V25H153.286ZM153.286 22.376H165.67V17.032H152.038V21.128C152.038 21.4693 152.155 21.768 152.39 22.024C152.646 22.2587 152.945 22.376 153.286 22.376ZM175.192 25C174.488 25 173.838 24.8293 173.24 24.488C172.664 24.1253 172.195 23.656 171.832 23.08C171.491 22.4827 171.32 21.832 171.32 21.128V0.359999H173.944V21.128C173.944 21.4693 174.062 21.768 174.296 22.024C174.552 22.2587 174.851 22.376 175.192 22.376H178.328V25H175.192Z" fill="black"/>
<path d="M124.23 25V1.992H143.43C144.134 1.992 144.774 2.17333 145.35 2.536C145.947 2.87733 146.416 3.336 146.758 3.912C147.099 4.488 147.27 5.128 147.27 5.832V12.584C147.27 13.288 147.099 13.928 146.758 14.504C146.416 15.08 145.947 15.5493 145.35 15.912C144.774 16.2533 144.134 16.424 143.43 16.424H126.822V25H124.23ZM128.07 13.8H143.43C143.771 13.8 144.059 13.6827 144.294 13.448C144.55 13.2133 144.678 12.9253 144.678 12.584V5.832C144.678 5.49067 144.55 5.20267 144.294 4.968C144.059 4.712 143.771 4.584 143.43 4.584H128.07C127.728 4.584 127.43 4.712 127.174 4.968C126.939 5.20267 126.822 5.49067 126.822 5.832V12.584C126.822 12.9253 126.939 13.2133 127.174 13.448C127.43 13.6827 127.728 13.8 128.07 13.8Z" fill="#27A9A1"/>
</g>
<defs>
<filter id="filter0_i_1_2" x="0.792007" y="0.360001" width="177.536" height="28.64" filterUnits="userSpaceOnUse" color-interpolation-filters="sRGB">
<feFlood flood-opacity="0" result="BackgroundImageFix"/>
<feBlend mode="normal" in="SourceGraphic" in2="BackgroundImageFix" result="shape"/>
<feColorMatrix in="SourceAlpha" type="matrix" values="0 0 0 0 0 0 0 0 0 0 0 0 0 0 0 0 0 0 127 0" result="hardAlpha"/>
<feOffset dy="4"/>
<feGaussianBlur stdDeviation="2"/>
<feComposite in2="hardAlpha" operator="arithmetic" k2="-1" k3="1"/>
<feColorMatrix type="matrix" values="0 0 0 0 0 0 0 0 0 0 0 0 0 0 0 0 0 0 0.25 0"/>
<feBlend mode="normal" in2="shape" result="effect1_innerShadow_1_2"/>
</filter>
</defs>
</svg>
